<svg width="352" height="56" viewBox="0 0 352 56" fill="none" xmlns="http://www.w3.org/2000/svg">
    <path d="M151.92 7.43994H155.76V38.1599H171.12V41.9999H151.92V7.43994Z" fill="white"/>
    <path d="M178.822 38.1599H174.982V30.4799H178.822V38.1599H190.342V30.4799H178.822V26.6399H190.342V22.7999H178.822V18.9599H190.342V22.7999H194.182V41.9999H178.822V38.1599Z" fill="white"/>
    <path d="M198.045 22.7999H201.885V26.6399H198.045V22.7999ZM201.885 26.6399H205.725V30.4799H201.885V26.6399ZM205.725 30.4799H209.565V34.3199H205.725V30.4799ZM209.565 34.3199H213.405V38.1599H209.565V34.3199ZM201.885 38.1599H209.565V41.9999H201.885V38.1599ZM198.045 34.3199H201.885V38.1599H198.045V34.3199ZM201.885 18.9599H209.565V22.7999H201.885V18.9599ZM209.565 22.7999H213.405V26.6399H209.565V22.7999Z" fill="white"/>
    <path d="M221.104 38.1599H217.264V22.7999H221.104V26.6399H232.624V22.7999H221.104V18.9599H232.624V22.7999H236.464V30.4799H221.104V38.1599H232.624V41.9999H221.104V38.1599ZM232.624 34.3199H236.464V38.1599H232.624V34.3199Z" fill="white"/>
    <path d="M240.326 18.9599H248.006V22.7999H244.166V41.9999H240.326V18.9599Z" fill="white"/>
    <path d="M251.857 41.9999H267.217V45.8399H251.857V41.9999Z" fill="white"/>
    <path d="M271.076 7.43994H290.276V11.2799H274.916V22.7999H286.436V26.6399H274.916V38.1599H290.276V41.9999H271.076V7.43994Z" fill="white"/>
    <path d="M297.979 34.3199H294.139V18.9599H297.979V34.3199H305.659V38.1599H301.819V45.8399H297.979V34.3199ZM305.659 18.9599H309.499V34.3199H305.659V18.9599ZM290.299 45.8399H297.979V49.6799H290.299V45.8399Z" fill="white"/>
    <path d="M317.197 38.1599H313.357V22.7999H317.197V26.6399H328.717V22.7999H317.197V18.9599H328.717V22.7999H332.557V30.4799H317.197V38.1599H328.717V41.9999H317.197V38.1599ZM328.717 34.3199H332.557V38.1599H328.717V34.3199Z" fill="white"/>
    <path d="M336.42 22.7999H340.26V26.6399H336.42V22.7999ZM340.26 26.6399H344.1V30.4799H340.26V26.6399ZM344.1 30.4799H347.94V34.3199H344.1V30.4799ZM347.94 34.3199H351.78V38.1599H347.94V34.3199ZM340.26 38.1599H347.94V41.9999H340.26V38.1599ZM336.42 34.3199H340.26V38.1599H336.42V34.3199ZM340.26 18.9599H347.94V22.7999H340.26V18.9599ZM347.94 22.7999H351.78V26.6399H347.94V22.7999Z" fill="white"/>
    <rect width="7.89036" height="7.89036" transform="translate(39.4519) rotate(90)" fill="#00E45D"/>
    <rect width="7.89036" height="7.89036" transform="matrix(4.37114e-08 1 1 -4.37114e-08 94.6843 0)" fill="#00E45D"/>
    <rect width="7.89036" height="7.89036" transform="translate(63.1228 31.5615) rotate(-180)" fill="#00E45D"/>
    <rect width="7.89036" height="7.89036" transform="matrix(1 -8.74228e-08 -8.74228e-08 -1 71.0132 31.5615)" fill="#00E45D"/>
    <rect width="7.89036" height="7.89036" transform="translate(39.4519 15.7808) rotate(90)" fill="#8AFF76"/>
    <rect width="7.89036" height="7.89036" transform="matrix(4.37114e-08 1 1 -4.37114e-08 94.6843 15.7808)" fill="#8AFF76"/>
    <rect width="7.89036" height="7.89036" transform="translate(31.5615 15.7808) rotate(90)" fill="#00E45D"/>
    <rect width="7.89036" height="7.89036" transform="matrix(4.37114e-08 1 1 -4.37114e-08 102.575 15.7808)" fill="#00E45D"/>
    <rect width="7.89036" height="7.89036" transform="translate(31.5615 31.5615) rotate(90)" fill="#00E45D"/>
    <rect width="7.89036" height="7.89036" transform="matrix(4.37114e-08 1 1 -4.37114e-08 102.575 31.5615)" fill="#00E45D"/>
    <rect width="7.89036" height="7.89036" transform="translate(47.3423 31.5615) rotate(90)" fill="#00E45D"/>
    <rect width="7.89036" height="7.89036" transform="matrix(4.37114e-08 1 1 -4.37114e-08 86.7939 31.5615)" fill="#00E45D"/>
    <rect width="7.89036" height="7.89036" transform="translate(47.3423 15.7808) rotate(90)" fill="#00E45D"/>
    <rect width="7.89036" height="7.89036" transform="matrix(4.37114e-08 1 1 -4.37114e-08 86.7939 15.7808)" fill="#00E45D"/>
    <rect width="7.89036" height="7.89036" transform="translate(47.3423 31.5615) rotate(-180)" fill="#FFDE31"/>
    <rect width="7.89036" height="7.89036" transform="matrix(1 -8.74228e-08 -8.74228e-08 -1 86.7939 31.5615)" fill="#FFDE31"/>
    <rect width="7.89036" height="7.89036" transform="translate(39.4519 31.5615) rotate(90)" fill="#8AFF76"/>
    <rect width="7.89036" height="7.89036" transform="matrix(4.37114e-08 1 1 -4.37114e-08 94.6843 31.5615)" fill="#8AFF76"/>
    <rect width="7.89036" height="7.89036" transform="translate(31.5615 31.5615) rotate(-180)" fill="#FFDE31"/>
    <rect width="7.89036" height="7.89036" transform="matrix(1 -8.74228e-08 -8.74228e-08 -1 102.575 31.5615)" fill="#FFDE31"/>
    <rect width="7.89036" height="7.89036" transform="translate(39.4519 39.4519) rotate(90)" fill="#00E45D"/>
    <rect width="7.89036" height="7.89036" transform="matrix(4.37114e-08 1 1 -4.37114e-08 94.6843 39.4519)" fill="#00E45D"/>
    <rect width="7.89036" height="7.89036" transform="translate(23.6711 31.5615) rotate(-180)" fill="#8AFF76"/>
    <rect width="7.89036" height="7.89036" transform="matrix(1 -8.74228e-08 -8.74228e-08 -1 110.465 31.5615)" fill="#8AFF76"/>
    <rect width="7.89036" height="7.89036" transform="translate(39.4519 47.3423) rotate(90)" fill="#00E45D"/>
    <rect width="7.89036" height="7.89036" transform="matrix(4.37114e-08 1 1 -4.37114e-08 94.6843 47.3423)" fill="#00E45D"/>
    <rect width="7.89036" height="7.89036" transform="translate(15.7808 31.5615) rotate(-180)" fill="#8AFF76"/>
    <rect width="7.89036" height="7.89036" transform="matrix(1 -8.74228e-08 -8.74228e-08 -1 118.355 31.5615)" fill="#8AFF76"/>
    <rect width="7.89036" height="7.89036" transform="translate(7.89038 31.5615) rotate(-180)" fill="#00E45D"/>
    <rect width="7.89036" height="7.89036" transform="matrix(1 -8.74228e-08 -8.74228e-08 -1 126.246 31.5615)" fill="#00E45D"/>
    <rect width="7.89036" height="7.89036" transform="translate(39.4519 7.89038) rotate(90)" fill="#00E45D"/>
    <rect width="7.89036" height="7.89036" transform="matrix(4.37114e-08 1 1 -4.37114e-08 94.6843 7.89038)" fill="#00E45D"/>
    <rect width="7.89036" height="7.89036" transform="translate(55.2327 31.5615) rotate(-180)" fill="#00E45D"/>
    <rect width="7.89036" height="7.89036" transform="matrix(1 -8.74228e-08 -8.74228e-08 -1 78.9036 31.5615)" fill="#00E45D"/>
    <rect width="7.89036" height="7.89036" transform="translate(39.4519 23.6711) rotate(90)" fill="#FFF065"/>
    <rect width="7.89036" height="7.89036" transform="matrix(4.37114e-08 1 1 -4.37114e-08 94.6843 23.6711)" fill="#FFF065"/>
</svg>
