<svg width="364" height="58" viewBox="0 0 364 58" fill="none" xmlns="http://www.w3.org/2000/svg">
    <path d="M151.92 8.43994H155.76V39.1599H171.12V42.9999H151.92V8.43994Z" fill="white"/>
    <path d="M178.822 39.1599H174.982V31.4799H178.822V39.1599H190.342V31.4799H178.822V27.6399H190.342V23.7999H178.822V19.9599H190.342V23.7999H194.182V42.9999H178.822V39.1599Z" fill="white"/>
    <path d="M198.045 23.7999H201.885V27.6399H198.045V23.7999ZM201.885 27.6399H205.725V31.4799H201.885V27.6399ZM205.725 31.4799H209.565V35.3199H205.725V31.4799ZM209.565 35.3199H213.405V39.1599H209.565V35.3199ZM201.885 39.1599H209.565V42.9999H201.885V39.1599ZM198.045 35.3199H201.885V39.1599H198.045V35.3199ZM201.885 19.9599H209.565V23.7999H201.885V19.9599ZM209.565 23.7999H213.405V27.6399H209.565V23.7999Z" fill="white"/>
    <path d="M221.104 39.1599H217.264V23.7999H221.104V27.6399H232.624V23.7999H221.104V19.9599H232.624V23.7999H236.464V31.4799H221.104V39.1599H232.624V42.9999H221.104V39.1599ZM232.624 35.3199H236.464V39.1599H232.624V35.3199Z" fill="white"/>
    <path d="M240.326 19.9599H248.006V23.7999H244.166V42.9999H240.326V19.9599Z" fill="white"/>
    <path d="M251.857 42.9999H267.217V46.8399H251.857V42.9999Z" fill="white"/>
    <path d="M271.076 8.43994H290.276V12.2799H274.916V23.7999H286.436V27.6399H274.916V39.1599H290.276V42.9999H271.076V8.43994Z" fill="white"/>
    <path d="M297.979 35.3199H294.139V19.9599H297.979V35.3199H305.659V39.1599H301.819V46.8399H297.979V35.3199ZM305.659 19.9599H309.499V35.3199H305.659V19.9599ZM290.299 46.8399H297.979V50.6799H290.299V46.8399Z" fill="white"/>
    <path d="M317.197 39.1599H313.357V23.7999H317.197V27.6399H328.717V23.7999H317.197V19.9599H328.717V23.7999H332.557V31.4799H317.197V39.1599H328.717V42.9999H317.197V39.1599ZM328.717 35.3199H332.557V39.1599H328.717V35.3199Z" fill="white"/>
    <path d="M336.42 23.7999H340.26V27.6399H336.42V23.7999ZM340.26 27.6399H344.1V31.4799H340.26V27.6399ZM344.1 31.4799H347.94V35.3199H344.1V31.4799ZM347.94 35.3199H351.78V39.1599H347.94V35.3199ZM340.26 39.1599H347.94V42.9999H340.26V39.1599ZM336.42 35.3199H340.26V39.1599H336.42V35.3199ZM340.26 19.9599H347.94V23.7999H340.26V19.9599ZM347.94 23.7999H351.78V27.6399H347.94V23.7999Z" fill="white"/>
    <rect width="7.89036" height="7.89036" transform="translate(39.4519 1) rotate(90)" fill="#F42F3B"/>
    <rect width="7.89036" height="7.89036" transform="matrix(4.37114e-08 1 1 -4.37114e-08 94.6843 1)" fill="#F42F3B"/>
    <rect width="7.89036" height="7.89036" transform="translate(63.1228 32.5615) rotate(-180)" fill="#F42F3B"/>
    <rect width="7.89036" height="7.89036" transform="matrix(1 -8.74228e-08 -8.74228e-08 -1 71.0132 32.5615)" fill="#F42F3B"/>
    <rect width="7.89036" height="7.89036" transform="translate(39.4519 16.7808) rotate(90)" fill="#FF701E"/>
    <rect width="7.89036" height="7.89036" transform="matrix(4.37114e-08 1 1 -4.37114e-08 94.6843 16.7808)" fill="#FF701E"/>
    <rect width="7.89036" height="7.89036" transform="translate(31.5615 16.7808) rotate(90)" fill="#F42F3B"/>
    <rect width="7.89036" height="7.89036" transform="matrix(4.37114e-08 1 1 -4.37114e-08 102.575 16.7808)" fill="#F42F3B"/>
    <rect width="7.89036" height="7.89036" transform="translate(31.5615 32.5615) rotate(90)" fill="#F42F3B"/>
    <rect width="7.89036" height="7.89036" transform="matrix(4.37114e-08 1 1 -4.37114e-08 102.575 32.5615)" fill="#F42F3B"/>
    <rect width="7.89036" height="7.89036" transform="translate(47.3423 32.5615) rotate(90)" fill="#F42F3B"/>
    <rect width="7.89036" height="7.89036" transform="matrix(4.37114e-08 1 1 -4.37114e-08 86.7939 32.5615)" fill="#F42F3B"/>
    <rect width="7.89036" height="7.89036" transform="translate(47.3423 16.7808) rotate(90)" fill="#F42F3B"/>
    <rect width="7.89036" height="7.89036" transform="matrix(4.37114e-08 1 1 -4.37114e-08 86.7939 16.7808)" fill="#F42F3B"/>
    <rect width="7.89036" height="7.89036" transform="translate(47.3423 32.5615) rotate(-180)" fill="#FFDE31"/>
    <rect width="7.89036" height="7.89036" transform="matrix(1 -8.74228e-08 -8.74228e-08 -1 86.7939 32.5615)" fill="#FFDE31"/>
    <rect width="7.89036" height="7.89036" transform="translate(39.4519 32.5615) rotate(90)" fill="#FF701E"/>
    <rect width="7.89036" height="7.89036" transform="matrix(4.37114e-08 1 1 -4.37114e-08 94.6843 32.5615)" fill="#FF701E"/>
    <rect width="7.89036" height="7.89036" transform="translate(31.5615 32.5615) rotate(-180)" fill="#FFDE31"/>
    <rect width="7.89036" height="7.89036" transform="matrix(1 -8.74228e-08 -8.74228e-08 -1 102.575 32.5615)" fill="#FFDE31"/>
    <rect width="7.89036" height="7.89036" transform="translate(39.4519 40.4519) rotate(90)" fill="#F42F3B"/>
    <rect width="7.89036" height="7.89036" transform="matrix(4.37114e-08 1 1 -4.37114e-08 94.6843 40.4519)" fill="#F42F3B"/>
    <rect width="7.89036" height="7.89036" transform="translate(23.6711 32.5615) rotate(-180)" fill="#FF701E"/>
    <rect width="7.89036" height="7.89036" transform="matrix(1 -8.74228e-08 -8.74228e-08 -1 110.465 32.5615)" fill="#FF701E"/>
    <rect width="7.89036" height="7.89036" transform="translate(39.4519 48.3423) rotate(90)" fill="#F42F3B"/>
    <rect width="7.89036" height="7.89036" transform="matrix(4.37114e-08 1 1 -4.37114e-08 94.6843 48.3423)" fill="#F42F3B"/>
    <rect width="7.89036" height="7.89036" transform="translate(15.7808 32.5615) rotate(-180)" fill="#FF701E"/>
    <rect width="7.89036" height="7.89036" transform="matrix(1 -8.74228e-08 -8.74228e-08 -1 118.355 32.5615)" fill="#FF701E"/>
    <rect width="7.89036" height="7.89036" transform="translate(7.89038 32.5615) rotate(-180)" fill="#F42F3B"/>
    <rect width="7.89036" height="7.89036" transform="matrix(1 -8.74228e-08 -8.74228e-08 -1 126.246 32.5615)" fill="#F42F3B"/>
    <rect width="7.89036" height="7.89036" transform="translate(39.4519 8.89038) rotate(90)" fill="#F42F3B"/>
    <rect width="7.89036" height="7.89036" transform="matrix(4.37114e-08 1 1 -4.37114e-08 94.6843 8.89038)" fill="#F42F3B"/>
    <rect width="7.89036" height="7.89036" transform="translate(55.2327 32.5615) rotate(-180)" fill="#F42F3B"/>
    <rect width="7.89036" height="7.89036" transform="matrix(1 -8.74228e-08 -8.74228e-08 -1 78.9036 32.5615)" fill="#F42F3B"/>
    <rect width="7.89036" height="7.89036" transform="translate(39.4519 24.6711) rotate(90)" fill="#FFF065"/>
    <rect width="7.89036" height="7.89036" transform="matrix(4.37114e-08 1 1 -4.37114e-08 94.6843 24.6711)" fill="#FFF065"/>
    <rect width="7.89036" height="7.89036" transform="translate(39.4519 1) rotate(90)" fill="#F42F3B"/>
    <rect width="7.89036" height="7.89036" transform="matrix(4.37114e-08 1 1 -4.37114e-08 94.6843 1)" fill="#F42F3B"/>
    <rect width="7.89036" height="7.89036" transform="translate(63.1228 32.5615) rotate(-180)" fill="#F42F3B"/>
    <rect width="7.89036" height="7.89036" transform="matrix(1 -8.74228e-08 -8.74228e-08 -1 71.0132 32.5615)" fill="#F42F3B"/>
    <rect width="7.89036" height="7.89036" transform="translate(39.4519 16.7808) rotate(90)" fill="#FF701E"/>
    <rect width="7.89036" height="7.89036" transform="matrix(4.37114e-08 1 1 -4.37114e-08 94.6843 16.7808)" fill="#FF701E"/>
    <rect width="7.89036" height="7.89036" transform="translate(31.5615 16.7808) rotate(90)" fill="#F42F3B"/>
    <rect width="7.89036" height="7.89036" transform="matrix(4.37114e-08 1 1 -4.37114e-08 102.575 16.7808)" fill="#F42F3B"/>
    <rect width="7.89036" height="7.89036" transform="translate(31.5615 32.5615) rotate(90)" fill="#F42F3B"/>
    <rect width="7.89036" height="7.89036" transform="matrix(4.37114e-08 1 1 -4.37114e-08 102.575 32.5615)" fill="#F42F3B"/>
    <rect width="7.89036" height="7.89036" transform="translate(47.3423 32.5615) rotate(90)" fill="#F42F3B"/>
    <rect width="7.89036" height="7.89036" transform="matrix(4.37114e-08 1 1 -4.37114e-08 86.7939 32.5615)" fill="#F42F3B"/>
    <rect width="7.89036" height="7.89036" transform="translate(47.3423 16.7808) rotate(90)" fill="#F42F3B"/>
    <rect width="7.89036" height="7.89036" transform="matrix(4.37114e-08 1 1 -4.37114e-08 86.7939 16.7808)" fill="#F42F3B"/>
    <rect width="7.89036" height="7.89036" transform="translate(47.3423 32.5615) rotate(-180)" fill="#FFDE31"/>
    <rect width="7.89036" height="7.89036" transform="matrix(1 -8.74228e-08 -8.74228e-08 -1 86.7939 32.5615)" fill="#FFDE31"/>
    <rect width="7.89036" height="7.89036" transform="translate(39.4519 32.5615) rotate(90)" fill="#FF701E"/>
    <rect width="7.89036" height="7.89036" transform="matrix(4.37114e-08 1 1 -4.37114e-08 94.6843 32.5615)" fill="#FF701E"/>
    <rect width="7.89036" height="7.89036" transform="translate(31.5615 32.5615) rotate(-180)" fill="#FFDE31"/>
    <rect width="7.89036" height="7.89036" transform="matrix(1 -8.74228e-08 -8.74228e-08 -1 102.575 32.5615)" fill="#FFDE31"/>
    <rect width="7.89036" height="7.89036" transform="translate(39.4519 40.4519) rotate(90)" fill="#F42F3B"/>
    <rect width="7.89036" height="7.89036" transform="matrix(4.37114e-08 1 1 -4.37114e-08 94.6843 40.4519)" fill="#F42F3B"/>
    <rect width="7.89036" height="7.89036" transform="translate(23.6711 32.5615) rotate(-180)" fill="#FF701E"/>
    <rect width="7.89036" height="7.89036" transform="matrix(1 -8.74228e-08 -8.74228e-08 -1 110.465 32.5615)" fill="#FF701E"/>
    <rect width="7.89036" height="7.89036" transform="translate(39.4519 48.3423) rotate(90)" fill="#F42F3B"/>
    <rect width="7.89036" height="7.89036" transform="matrix(4.37114e-08 1 1 -4.37114e-08 94.6843 48.3423)" fill="#F42F3B"/>
    <rect width="7.89036" height="7.89036" transform="translate(15.7808 32.5615) rotate(-180)" fill="#FF701E"/>
    <rect width="7.89036" height="7.89036" transform="matrix(1 -8.74228e-08 -8.74228e-08 -1 118.355 32.5615)" fill="#FF701E"/>
    <rect width="7.89036" height="7.89036" transform="translate(7.89038 32.5615) rotate(-180)" fill="#F42F3B"/>
    <rect width="7.89036" height="7.89036" transform="matrix(1 -8.74228e-08 -8.74228e-08 -1 126.246 32.5615)" fill="#F42F3B"/>
    <rect width="7.89036" height="7.89036" transform="translate(39.4519 8.89038) rotate(90)" fill="#F42F3B"/>
    <rect width="7.89036" height="7.89036" transform="matrix(4.37114e-08 1 1 -4.37114e-08 94.6843 8.89038)" fill="#F42F3B"/>
    <rect width="7.89036" height="7.89036" transform="translate(55.2327 32.5615) rotate(-180)" fill="#F42F3B"/>
    <rect width="7.89036" height="7.89036" transform="matrix(1 -8.74228e-08 -8.74228e-08 -1 78.9036 32.5615)" fill="#F42F3B"/>
    <rect width="7.89036" height="7.89036" transform="translate(39.4519 24.6711) rotate(90)" fill="#FFF065"/>
    <rect width="7.89036" height="7.89036" transform="matrix(4.37114e-08 1 1 -4.37114e-08 94.6843 24.6711)" fill="#FFF065"/>
    <rect width="7.89036" height="7.89036" transform="translate(39.4519 1) rotate(90)" fill="#F42F3B"/>
    <rect width="7.89036" height="7.89036" transform="matrix(4.37114e-08 1 1 -4.37114e-08 94.6843 1)" fill="#F42F3B"/>
    <rect width="7.89036" height="7.89036" transform="translate(63.1228 32.5615) rotate(-180)" fill="#F42F3B"/>
    <rect width="7.89036" height="7.89036" transform="matrix(1 -8.74228e-08 -8.74228e-08 -1 71.0132 32.5615)" fill="#F42F3B"/>
    <rect width="7.89036" height="7.89036" transform="translate(39.4519 16.7808) rotate(90)" fill="#FF701E"/>
    <rect width="7.89036" height="7.89036" transform="matrix(4.37114e-08 1 1 -4.37114e-08 94.6843 16.7808)" fill="#FF701E"/>
    <rect width="7.89036" height="7.89036" transform="translate(31.5615 16.7808) rotate(90)" fill="#F42F3B"/>
    <rect width="7.89036" height="7.89036" transform="matrix(4.37114e-08 1 1 -4.37114e-08 102.575 16.7808)" fill="#F42F3B"/>
    <rect width="7.89036" height="7.89036" transform="translate(31.5615 32.5615) rotate(90)" fill="#F42F3B"/>
    <rect width="7.89036" height="7.89036" transform="matrix(4.37114e-08 1 1 -4.37114e-08 102.575 32.5615)" fill="#F42F3B"/>
    <rect width="7.89036" height="7.89036" transform="translate(47.3423 32.5615) rotate(90)" fill="#F42F3B"/>
    <rect width="7.89036" height="7.89036" transform="matrix(4.37114e-08 1 1 -4.37114e-08 86.7939 32.5615)" fill="#F42F3B"/>
    <rect width="7.89036" height="7.89036" transform="translate(47.3423 16.7808) rotate(90)" fill="#F42F3B"/>
    <rect width="7.89036" height="7.89036" transform="matrix(4.37114e-08 1 1 -4.37114e-08 86.7939 16.7808)" fill="#F42F3B"/>
    <rect width="7.89036" height="7.89036" transform="translate(47.3423 32.5615) rotate(-180)" fill="#FFDE31"/>
    <rect width="7.89036" height="7.89036" transform="matrix(1 -8.74228e-08 -8.74228e-08 -1 86.7939 32.5615)" fill="#FFDE31"/>
    <rect width="7.89036" height="7.89036" transform="translate(39.4519 32.5615) rotate(90)" fill="#FF701E"/>
    <rect width="7.89036" height="7.89036" transform="matrix(4.37114e-08 1 1 -4.37114e-08 94.6843 32.5615)" fill="#FF701E"/>
    <rect width="7.89036" height="7.89036" transform="translate(31.5615 32.5615) rotate(-180)" fill="#FFDE31"/>
    <rect width="7.89036" height="7.89036" transform="matrix(1 -8.74228e-08 -8.74228e-08 -1 102.575 32.5615)" fill="#FFDE31"/>
    <rect width="7.89036" height="7.89036" transform="translate(39.4519 40.4519) rotate(90)" fill="#F42F3B"/>
    <rect width="7.89036" height="7.89036" transform="matrix(4.37114e-08 1 1 -4.37114e-08 94.6843 40.4519)" fill="#F42F3B"/>
    <rect width="7.89036" height="7.89036" transform="translate(23.6711 32.5615) rotate(-180)" fill="#FF701E"/>
    <rect width="7.89036" height="7.89036" transform="matrix(1 -8.74228e-08 -8.74228e-08 -1 110.465 32.5615)" fill="#FF701E"/>
    <rect width="7.89036" height="7.89036" transform="translate(39.4519 48.3423) rotate(90)" fill="#F42F3B"/>
    <rect width="7.89036" height="7.89036" transform="matrix(4.37114e-08 1 1 -4.37114e-08 94.6843 48.3423)" fill="#F42F3B"/>
    <rect width="7.89036" height="7.89036" transform="translate(15.7808 32.5615) rotate(-180)" fill="#FF701E"/>
    <rect width="7.89036" height="7.89036" transform="matrix(1 -8.74228e-08 -8.74228e-08 -1 118.355 32.5615)" fill="#FF701E"/>
    <rect width="7.89036" height="7.89036" transform="translate(7.89038 32.5615) rotate(-180)" fill="#F42F3B"/>
    <rect width="7.89036" height="7.89036" transform="matrix(1 -8.74228e-08 -8.74228e-08 -1 126.246 32.5615)" fill="#F42F3B"/>
    <rect width="7.89036" height="7.89036" transform="translate(39.4519 8.89038) rotate(90)" fill="#F42F3B"/>
    <rect width="7.89036" height="7.89036" transform="matrix(4.37114e-08 1 1 -4.37114e-08 94.6843 8.89038)" fill="#F42F3B"/>
    <rect width="7.89036" height="7.89036" transform="translate(55.2327 32.5615) rotate(-180)" fill="#F42F3B"/>
    <rect width="7.89036" height="7.89036" transform="matrix(1 -8.74228e-08 -8.74228e-08 -1 78.9036 32.5615)" fill="#F42F3B"/>
    <rect width="7.89036" height="7.89036" transform="translate(39.4519 24.6711) rotate(90)" fill="#FFF065"/>
    <rect width="7.89036" height="7.89036" transform="matrix(4.37114e-08 1 1 -4.37114e-08 94.6843 24.6711)" fill="#FFF065"/>
</svg>
