<svg width="579" height="165" viewBox="0 0 579 165" fill="none" xmlns="http://www.w3.org/2000/svg">
<mask id="mask0_614_3" style="mask-type:alpha" maskUnits="userSpaceOnUse" x="0" y="0" width="91" height="91">
<path d="M0 13.4233C0 6.00979 6.00981 0 13.4233 0H76.7954C84.2089 0 90.2187 6.00981 90.2187 13.4233V76.7954C90.2187 84.2089 84.2088 90.2187 76.7954 90.2187H13.4233C6.00979 90.2187 0 84.2088 0 76.7954V13.4233Z" fill="white"/>
</mask>
<g mask="url(#mask0_614_3)">
<path d="M113.818 56.7437H70.6332L70.0631 23.2503L29.4435 23.8204L36.5698 -24.353H-23.8608L-30.417 -53.0005L-188.762 -111.721H-226.816V206.965H330.456V121.878H267.46V101.497H196.055V85.8188H113.818V56.7437Z" fill="white"/>
</g>
<path d="M538.406 91.8155H467.934V66.9824H540.286C544.984 66.9824 547.937 66.3112 547.937 62.9554C547.937 60.1365 544.984 59.4654 539.48 59.0627L500.419 56.378C473.706 54.633 466.592 47.3844 466.592 29.7999C466.592 12.3496 473.975 2.01367 501.358 2.01367H567.803V26.8468L499.479 26.7125C495.586 26.7125 491.828 26.981 491.828 30.7395C491.828 33.5584 494.378 34.3638 500.284 34.7665L539.346 37.3169C566.327 39.062 573.173 46.579 573.173 64.0293C573.173 73.2914 570.622 80.2715 565.521 84.9696C560.421 89.5335 551.427 91.8155 538.406 91.8155Z" fill="white"/>
<path d="M345.502 2.01367H451.814V26.8468H411.41V91.8155H386.04V26.8468H345.502V2.01367Z" fill="white"/>
<path d="M353.571 82.1505L331.691 93.8288L319.744 77.1839H251.688L239.741 93.8288L217.861 82.1505L272.763 6.44318C275.85 2.14772 280.28 0 285.783 0C291.287 0 295.582 2.14772 298.67 6.44318L353.571 82.1505ZM284.844 31.2763L266.588 56.6463H304.979L286.723 31.2763C286.052 30.3366 285.515 30.3366 284.844 31.2763Z" fill="white"/>
<path d="M175.033 91.8155H104.561V66.9824H176.913C181.611 66.9824 184.564 66.3112 184.564 62.9554C184.564 60.1365 181.611 59.4654 176.107 59.0627L137.045 56.378C110.333 54.633 103.219 47.3844 103.219 29.7999C103.219 12.3496 110.602 2.01367 137.985 2.01367H204.43V26.8468L136.106 26.7125C132.213 26.7125 128.455 26.981 128.455 30.7395C128.455 33.5584 131.005 34.3638 136.911 34.7665L175.973 37.3169C202.954 39.062 209.8 46.579 209.8 64.0293C209.8 73.2914 207.249 80.2715 202.148 84.9696C197.048 89.5335 188.054 91.8155 175.033 91.8155Z" fill="white"/>
<path d="M558.559 154.512H518.007V148.162H559.63C562.308 148.162 563.992 147.779 563.992 145.866C563.685 144.107 562.079 143.724 559.171 143.647L536.523 142.117C521.297 141.123 517.242 136.991 517.242 126.968C517.242 117.021 521.45 111.13 537.059 111.13H575.315V117.404H537.059C527.036 117.404 523.746 119.775 523.746 126.968C523.746 130.411 524.664 132.783 526.5 134.16C528.413 135.537 531.856 136.379 536.906 136.685L559.554 138.215C563.915 138.521 566.746 139.21 568.2 140.357C569.653 141.429 570.342 143.494 570.342 146.478C570.342 149.615 569.5 151.758 567.894 152.905C566.287 153.977 563.226 154.512 558.559 154.512ZM558.559 162.317H518.007V156.043H558.559C563.609 156.043 567.052 155.354 568.965 153.977C570.878 152.599 571.872 150.075 571.872 146.478C571.872 139.439 569.194 137.297 559.63 136.685L536.982 135.155C527.648 134.542 525.276 132.783 525.276 126.968C525.276 123.831 526.118 121.765 527.724 120.617C529.331 119.469 532.468 118.934 537.059 118.934H575.315V125.284L535.988 125.208C533.769 125.208 531.627 125.361 531.627 127.503C531.627 129.11 533.08 129.569 536.447 129.799L559.095 131.252C574.474 132.247 578.376 136.532 578.376 146.478C578.376 156.349 574.168 162.317 558.559 162.317Z" fill="white"/>
<path d="M505.016 162.317H459.338C451.917 162.317 447.861 158.261 447.861 150.84V122.606C447.861 115.185 451.917 111.13 459.338 111.13H505.016V117.404H459.338C455.36 117.404 454.365 118.551 454.365 122.606V150.84C454.365 154.895 455.36 156.043 459.338 156.043H505.016V162.317ZM505.016 135.996H455.895V122.606C455.895 119.316 456.278 118.934 459.338 118.934H505.016V125.284H463.164C462.628 125.284 462.399 125.514 462.399 126.05V130.64H505.016V135.996ZM505.016 154.512H459.338C456.278 154.512 455.895 154.13 455.895 150.84V137.526H505.016V142.806H462.399V147.397C462.399 147.932 462.628 148.162 463.164 148.162H505.016V154.512Z" fill="white"/>
<path d="M379.351 162.393H372.848V122.683C372.848 115.261 376.903 111.13 384.325 111.13H415.771C430.462 111.13 436.506 116.791 436.506 129.11C436.506 138.062 432.834 143.724 425.565 146.019L436.736 156.961L431.15 160.48L413.705 141.429C418.526 141.352 421.433 141.046 424.188 140.128C428.243 138.674 430.003 135.537 430.003 129.11C430.003 124.749 428.932 121.688 426.789 119.928C424.723 118.169 421.051 117.251 415.771 117.251H384.325C380.422 117.251 379.351 118.475 379.351 122.683V162.393ZM410.186 139.898H380.882V122.683C380.882 119.316 381.341 118.781 384.325 118.781H415.771C420.592 118.781 423.958 119.546 425.718 121C427.554 122.453 428.472 125.208 428.472 129.11C428.472 134.236 427.401 137.144 424.341 138.445C422.734 139.133 421.51 139.439 418.755 139.669C416.001 139.898 414.165 139.898 410.186 139.898ZM387.385 126.05V134.083H416.689C419.98 134.083 421.969 133.777 421.969 129.722C421.969 126.05 420.362 125.284 416.689 125.284H388.15C387.615 125.284 387.385 125.514 387.385 126.05ZM429.85 161.245L424.494 164.612L408.885 147.167H387.385V162.393H380.882V141.429H411.563L429.85 161.245Z" fill="white"/>
<path d="M328.283 163.464C317.647 163.464 308.313 160.633 302.88 155.813C298.825 152.217 296.836 146.708 296.836 139.21V111.13H303.186V139.21C303.186 144.948 304.411 148.927 306.936 151.146C311.297 155.048 319.178 157.19 328.283 157.19C337.235 157.19 345.039 155.201 349.63 151.299C352.155 149.233 353.455 145.178 353.455 139.21V111.13H359.806V139.21C359.806 147.014 357.74 152.676 353.532 156.119C347.64 161.016 339.224 163.464 328.283 163.464ZM328.283 155.66C319.79 155.66 312.062 153.671 307.93 149.998C305.788 148.085 304.717 144.489 304.717 139.21V111.13H311.144V137.297C311.144 141.582 311.985 144.489 313.745 146.019C316.347 148.315 321.167 149.462 328.283 149.462C335.781 149.462 340.754 148.238 343.279 145.713C344.733 144.26 345.422 141.505 345.422 137.297V111.13H351.925V139.21C351.925 144.719 350.854 148.391 348.635 150.151C344.35 153.747 336.852 155.66 328.283 155.66Z" fill="white"/>
<path d="M287.649 117.404H227.051V111.13H287.649V117.404ZM256.585 162.317H250.158V125.284H227.051V118.934H256.585V162.317ZM264.619 162.317H258.115V118.934H287.649V125.284H264.619V162.317Z" fill="white"/>
<path d="M158.476 162.317H152.125V120.77C152.125 113.043 155.186 110.441 159.853 110.441C162.531 110.441 164.979 111.359 167.198 113.272L201.858 142.423C202.394 142.806 202.776 142.577 202.776 141.964V111.13H209.204V152.829C209.204 155.048 207.826 155.278 206.296 153.977L163.755 118.398C161.536 116.486 158.476 117.633 158.476 120.77V162.317ZM209.357 163.158C206.679 163.158 204.23 162.24 202.011 160.327L167.351 131.176C166.815 130.794 166.433 131.023 166.433 131.635V162.317H160.006V120.77C160.006 118.858 161.613 118.398 162.837 119.546L205.301 155.125C207.826 157.343 210.734 156.425 210.734 152.829V111.13H217.084V152.829C217.084 160.557 214.024 163.158 209.357 163.158Z" fill="white"/>
<path d="M138.37 162.317H92.6918C85.27 162.317 81.2148 158.261 81.2148 150.84V122.606C81.2148 115.185 85.27 111.13 92.6918 111.13H138.37V117.404H92.6918C88.7131 117.404 87.7184 118.551 87.7184 122.606V150.84C87.7184 154.895 88.7131 156.043 92.6918 156.043H138.37V162.317ZM138.37 135.996H89.2487V122.606C89.2487 119.316 89.6313 118.934 92.6918 118.934H138.37V125.284H96.5174C95.9818 125.284 95.7523 125.514 95.7523 126.05V130.64H138.37V135.996ZM138.37 154.512H92.6918C89.6313 154.512 89.2487 154.13 89.2487 150.84V137.526H138.37V142.806H95.7523V147.397C95.7523 147.932 95.9818 148.162 96.5174 148.162H138.37V154.512Z" fill="white"/>
<path d="M37.1852 155.277C36.6496 155.277 36.114 155.048 35.7315 154.512L6.96266 112.813L12.4716 109.829L36.6496 144.413C36.9557 144.795 37.4147 144.948 37.7208 144.413L61.8223 109.829L67.3312 112.813L38.4859 154.512C38.1034 155.048 37.7208 155.277 37.1852 155.277ZM37.1852 163.311C33.8952 163.311 31.4467 162.087 29.7635 159.639L0 116.485L5.58543 113.501L34.4307 155.277C35.1194 156.272 36.0375 156.808 37.1852 156.808C38.2564 156.808 39.098 156.349 39.7866 155.354L68.7085 113.501L74.2939 116.485L44.5304 159.639C42.8471 162.087 40.3987 163.311 37.1852 163.311Z" fill="white"/>
</svg>
