<?xml version="1.0" encoding="UTF-8"?>
<svg id="Layer_1" data-name="Layer 1" xmlns="http://www.w3.org/2000/svg" viewBox="0 0 138 137">
  <defs>
    <style>
      .cls-1 {
        opacity: .92;
      }

      .cls-1, .cls-2, .cls-3, .cls-4 {
        fill: #fff;
        fill-rule: evenodd;
        isolation: isolate;
        stroke-width: 0px;
      }

      .cls-2 {
        opacity: .93;
      }

      .cls-3 {
        opacity: .97;
      }

      .cls-4 {
        opacity: .95;
      }
    </style>
  </defs>
  <path class="cls-3" d="m0,0h10c-.46,17.74.04,35.4,1.5,53,.75.63,1.58,1.13,2.5,1.5,12.33.67,24.67.67,37,0,.92-.37,1.75-.87,2.5-1.5,1.46-17.6,1.96-35.26,1.5-53h10c.17,19,0,38-.5,57-.69,2.7-2.19,4.86-4.5,6.5-16.91,1.64-33.91,1.97-51,1-4.21-1.71-7.21-4.55-9-8.5V0Z"/>
  <path class="cls-2" d="m73,0h65v1c-3.13,2.63-6.13,5.46-9,8.5-5.99.5-11.99.67-18,.5v55h-11V10c-6.34.17-12.68,0-19-.5-3.28-2.77-5.94-5.93-8-9.5Z"/>
  <path class="cls-1" d="m0,72c4.35-.17,8.68,0,13,.5,6.14,8.44,12.64,16.61,19.5,24.5,6.86-7.89,13.36-16.06,19.5-24.5,4.33-.67,8.67-.67,13,0-8.48,10.65-17.14,21.15-26,31.5,8.92,10.88,17.59,21.88,26,33h-13c-6.01-8.67-12.51-17-19.5-25-6.51,8.36-13.01,16.7-19.5,25H0v-2c9.18-9.68,17.84-19.85,26-30.5-8.16-10.65-16.82-20.82-26-30.5v-2Z"/>
  <path class="cls-4" d="m138,81v47c-2,4-5,7-9,9h-47c-3.98-1.82-6.81-4.82-8.5-9-.96-16.73-.62-33.4,1-50,1.96-2.64,4.46-4.47,7.5-5.5,15.67-.67,31.33-.67,47,0,4.18,1.69,7.18,4.52,9,8.5Zm-52,1c13-.17,26,0,39,.5.83.83,1.67,1.67,2.5,2.5.67,13,.67,26,0,39l-2.5,2.5c-13,.67-26,.67-39,0-.83-.83-1.67-1.67-2.5-2.5-.67-13-.67-26,0-39,1.04-.87,1.88-1.87,2.5-3Z"/>
</svg>